<?xml version="1.0" encoding="utf-8"?>
<!-- Generator: Adobe Illustrator 27.1.0, SVG Export Plug-In . SVG Version: 6.00 Build 0)  -->
<svg version="1.1" id="Capa_1" xmlns="http://www.w3.org/2000/svg" xmlns:xlink="http://www.w3.org/1999/xlink" x="0px" y="0px"
	 viewBox="0 0 100 100" style="enable-background:new 0 0 100 100;" xml:space="preserve">
<style type="text/css">
	.st0{fill:#0C66E4;}
	.st1{fill:#FFFFFF;}
</style>
<rect x="-1.4" y="-1.2" class="st0" width="102.4" height="102.4"/>
<path class="st1" d="M78.1,8.7H21.9c-5.2,0-9.4,4.2-9.4,9.4v56.2c0,5.2,4.2,9.4,9.4,9.4h56.2c5.2,0,9.4-4.2,9.4-9.4V18
	C87.5,12.9,83.3,8.7,78.1,8.7z M45.1,65.5c0,2.5-2,4.5-4.5,4.5H26.8c-2.5,0-4.5-2-4.5-4.5V22.9c0-2.5,2-4.5,4.5-4.5h13.9
	c2.5,0,4.5,2,4.5,4.5V65.5z M77.8,46.7c0,2.5-2,4.5-4.5,4.5H59.4c-2.5,0-4.5-2-4.5-4.5V22.9c0-2.5,2-4.5,4.5-4.5h13.9
	c2.5,0,4.5,2,4.5,4.5V46.7z"/>
</svg>
